<svg width="329" height="33" viewBox="0 0 329 33" fill="none" xmlns="http://www.w3.org/2000/svg">
<path d="M3.38281 15.3086L13.7754 19.5088V22.7627L0.195312 16.4707V14.0469L13.7754 7.77148V11.0254L3.38281 15.3086ZM115.908 18.3301C115.609 20.8867 114.663 22.8623 113.069 24.2568C111.487 25.6403 109.378 26.332 106.744 26.332C103.889 26.332 101.598 25.3083 99.8711 23.2607C98.1556 21.2132 97.2979 18.474 97.2979 15.043V12.7188C97.2979 10.472 97.6963 8.49642 98.4932 6.79199C99.3011 5.08757 100.441 3.78158 101.913 2.87402C103.385 1.9554 105.09 1.49609 107.026 1.49609C109.594 1.49609 111.653 2.21549 113.202 3.6543C114.752 5.08203 115.654 7.06315 115.908 9.59766H112.704C112.427 7.67188 111.824 6.27734 110.895 5.41406C109.976 4.55078 108.687 4.11914 107.026 4.11914C104.99 4.11914 103.391 4.87174 102.229 6.37695C101.077 7.88216 100.502 10.0238 100.502 12.8018V15.1426C100.502 17.7656 101.05 19.8519 102.146 21.4014C103.241 22.9508 104.774 23.7256 106.744 23.7256C108.515 23.7256 109.871 23.3271 110.812 22.5303C111.763 21.7223 112.394 20.3223 112.704 18.3301H115.908ZM118.979 16.8525C118.979 15.0928 119.323 13.5101 120.009 12.1045C120.706 10.6989 121.669 9.61426 122.897 8.85059C124.137 8.08691 125.548 7.70508 127.131 7.70508C129.577 7.70508 131.552 8.55176 133.058 10.2451C134.574 11.9385 135.332 14.1908 135.332 17.002V17.2178C135.332 18.9665 134.994 20.5381 134.319 21.9326C133.655 23.3161 132.698 24.3952 131.447 25.1699C130.208 25.9447 128.78 26.332 127.164 26.332C124.729 26.332 122.754 25.4854 121.237 23.792C119.732 22.0986 118.979 19.8574 118.979 17.0684V16.8525ZM122.067 17.2178C122.067 19.21 122.527 20.8092 123.445 22.0156C124.375 23.222 125.615 23.8252 127.164 23.8252C128.725 23.8252 129.964 23.2165 130.883 21.999C131.801 20.7705 132.261 19.055 132.261 16.8525C132.261 14.8825 131.79 13.2887 130.85 12.0713C129.92 10.8428 128.68 10.2285 127.131 10.2285C125.615 10.2285 124.392 10.8317 123.462 12.0381C122.532 13.2445 122.067 14.971 122.067 17.2178ZM142.072 8.03711L142.155 10.0293C143.472 8.47982 145.249 7.70508 147.484 7.70508C149.997 7.70508 151.707 8.66797 152.614 10.5938C153.212 9.73047 153.987 9.0332 154.938 8.50195C155.901 7.9707 157.036 7.70508 158.342 7.70508C162.282 7.70508 164.285 9.79134 164.352 13.9639V26H161.28V14.1465C161.28 12.8626 160.987 11.9053 160.4 11.2744C159.814 10.6325 158.829 10.3115 157.445 10.3115C156.305 10.3115 155.359 10.6546 154.606 11.3408C153.854 12.016 153.417 12.929 153.295 14.0801V26H150.207V14.2295C150.207 11.6175 148.929 10.3115 146.372 10.3115C144.358 10.3115 142.98 11.1693 142.238 12.8848V26H139.167V8.03711H142.072ZM184.174 17.2178C184.174 19.9515 183.549 22.154 182.298 23.8252C181.047 25.4964 179.354 26.332 177.218 26.332C175.037 26.332 173.322 25.6403 172.071 24.2568V32.9062H169V8.03711H171.806L171.955 10.0293C173.206 8.47982 174.943 7.70508 177.168 7.70508C179.326 7.70508 181.031 8.51855 182.281 10.1455C183.543 11.7725 184.174 14.0358 184.174 16.9355V17.2178ZM181.103 16.8691C181.103 14.8438 180.671 13.2445 179.808 12.0713C178.944 10.8981 177.76 10.3115 176.255 10.3115C174.396 10.3115 173.001 11.1361 172.071 12.7852V21.3682C172.99 23.0062 174.396 23.8252 176.288 23.8252C177.76 23.8252 178.928 23.2441 179.791 22.082C180.665 20.9089 181.103 19.1712 181.103 16.8691ZM187.278 16.8525C187.278 15.0928 187.621 13.5101 188.308 12.1045C189.005 10.6989 189.968 9.61426 191.196 8.85059C192.436 8.08691 193.847 7.70508 195.43 7.70508C197.876 7.70508 199.851 8.55176 201.356 10.2451C202.873 11.9385 203.631 14.1908 203.631 17.002V17.2178C203.631 18.9665 203.293 20.5381 202.618 21.9326C201.954 23.3161 200.997 24.3952 199.746 25.1699C198.507 25.9447 197.079 26.332 195.463 26.332C193.028 26.332 191.052 25.4854 189.536 23.792C188.031 22.0986 187.278 19.8574 187.278 17.0684V16.8525ZM190.366 17.2178C190.366 19.21 190.826 20.8092 191.744 22.0156C192.674 23.222 193.913 23.8252 195.463 23.8252C197.023 23.8252 198.263 23.2165 199.182 21.999C200.1 20.7705 200.56 19.055 200.56 16.8525C200.56 14.8825 200.089 13.2887 199.148 12.0713C198.219 10.8428 196.979 10.2285 195.43 10.2285C193.913 10.2285 192.69 10.8317 191.761 12.0381C190.831 13.2445 190.366 14.971 190.366 17.2178ZM210.388 8.03711L210.487 10.2949C211.86 8.56836 213.653 7.70508 215.866 7.70508C219.662 7.70508 221.577 9.84668 221.61 14.1299V26H218.539V14.1133C218.528 12.8184 218.229 11.861 217.643 11.2412C217.067 10.6214 216.165 10.3115 214.937 10.3115C213.94 10.3115 213.066 10.5771 212.313 11.1084C211.561 11.6396 210.974 12.3369 210.554 13.2002V26H207.482V8.03711H210.388ZM233.696 26.332C231.261 26.332 229.28 25.5352 227.753 23.9414C226.226 22.3366 225.462 20.195 225.462 17.5166V16.9521C225.462 15.1702 225.799 13.582 226.475 12.1875C227.161 10.7819 228.113 9.6862 229.33 8.90039C230.559 8.10352 231.887 7.70508 233.314 7.70508C235.65 7.70508 237.465 8.47428 238.76 10.0127C240.055 11.5511 240.702 13.7536 240.702 16.6201V17.8984H228.533C228.577 19.6693 229.092 21.1025 230.077 22.1982C231.073 23.2829 232.335 23.8252 233.862 23.8252C234.947 23.8252 235.866 23.6038 236.618 23.1611C237.371 22.7184 238.029 22.1318 238.594 21.4014L240.47 22.8623C238.965 25.1755 236.707 26.332 233.696 26.332ZM233.314 10.2285C232.075 10.2285 231.035 10.6823 230.193 11.5898C229.352 12.4863 228.832 13.748 228.633 15.375H237.631V15.1426C237.542 13.582 237.122 12.3757 236.369 11.5234C235.617 10.6602 234.598 10.2285 233.314 10.2285ZM247.177 8.03711L247.276 10.2949C248.649 8.56836 250.442 7.70508 252.655 7.70508C256.451 7.70508 258.366 9.84668 258.399 14.1299V26H255.328V14.1133C255.317 12.8184 255.018 11.861 254.432 11.2412C253.856 10.6214 252.954 10.3115 251.726 10.3115C250.729 10.3115 249.855 10.5771 249.103 11.1084C248.35 11.6396 247.763 12.3369 247.343 13.2002V26H244.271V8.03711H247.177ZM267.198 3.6875V8.03711H270.552V10.4111H267.198V21.5508C267.198 22.2702 267.348 22.8125 267.646 23.1777C267.945 23.5319 268.454 23.709 269.174 23.709C269.528 23.709 270.015 23.6426 270.635 23.5098V26C269.827 26.2214 269.041 26.332 268.277 26.332C266.905 26.332 265.87 25.917 265.173 25.0869C264.476 24.2568 264.127 23.0781 264.127 21.5508V10.4111H260.856V8.03711H264.127V3.6875H267.198ZM284.613 21.2354C284.613 20.4053 284.298 19.7633 283.667 19.3096C283.047 18.8447 281.957 18.4463 280.396 18.1143C278.847 17.7822 277.613 17.3838 276.694 16.9189C275.787 16.4541 275.112 15.9007 274.669 15.2588C274.237 14.6169 274.021 13.8532 274.021 12.9678C274.021 11.4958 274.641 10.2507 275.881 9.23242C277.132 8.21419 278.725 7.70508 280.662 7.70508C282.699 7.70508 284.348 8.23079 285.609 9.28223C286.882 10.3337 287.519 11.6784 287.519 13.3164H284.431C284.431 12.4753 284.071 11.7503 283.352 11.1416C282.643 10.5329 281.747 10.2285 280.662 10.2285C279.544 10.2285 278.67 10.472 278.039 10.959C277.408 11.446 277.093 12.0824 277.093 12.8682C277.093 13.6097 277.386 14.1686 277.973 14.5449C278.559 14.9212 279.616 15.2809 281.144 15.624C282.682 15.9671 283.927 16.3766 284.879 16.8525C285.831 17.3285 286.534 17.904 286.987 18.5791C287.452 19.2432 287.685 20.0566 287.685 21.0195C287.685 22.6243 287.043 23.9137 285.759 24.8877C284.475 25.8506 282.809 26.332 280.762 26.332C279.323 26.332 278.05 26.0775 276.943 25.5684C275.837 25.0592 274.968 24.3509 274.337 23.4434C273.717 22.5247 273.407 21.5342 273.407 20.4717H276.479C276.534 21.501 276.943 22.32 277.707 22.9287C278.482 23.5264 279.5 23.8252 280.762 23.8252C281.924 23.8252 282.854 23.5928 283.551 23.1279C284.259 22.652 284.613 22.0212 284.613 21.2354ZM300.733 28.0752H298.094L308.188 1.82812H310.811L300.733 28.0752ZM325.005 15.209L314.031 10.9092V7.75488L328.209 14.0303V16.4541L314.031 22.7461V19.5586L325.005 15.209Z" fill="black"/>
<path d="M37.4326 17.9482C37.2445 20.5492 36.2816 22.5967 34.5439 24.0908C32.8174 25.585 30.5374 26.332 27.7041 26.332C24.6051 26.332 22.1647 25.2917 20.3828 23.2109C18.612 21.1191 17.7266 18.2526 17.7266 14.6113V13.1338C17.7266 10.8096 18.1361 8.76204 18.9551 6.99121C19.7741 5.22038 20.9417 3.86458 22.458 2.92383C23.9854 1.97201 25.7562 1.49609 27.7705 1.49609C30.5596 1.49609 32.8063 2.24316 34.5107 3.7373C36.2152 5.23145 37.2002 7.32878 37.4658 10.0293H32.4854C32.3636 8.46875 31.9264 7.33984 31.1738 6.64258C30.4323 5.93424 29.2979 5.58008 27.7705 5.58008C26.1104 5.58008 24.8652 6.17773 24.0352 7.37305C23.2161 8.55729 22.7956 10.4001 22.7734 12.9014V14.7275C22.7734 17.3395 23.1663 19.2487 23.9521 20.4551C24.749 21.6615 25.9997 22.2646 27.7041 22.2646C29.2425 22.2646 30.388 21.916 31.1406 21.2188C31.9043 20.5104 32.3415 19.4202 32.4521 17.9482H37.4326ZM39.6406 16.8525C39.6406 15.0706 39.9837 13.4824 40.6699 12.0879C41.3561 10.6934 42.3411 9.61426 43.625 8.85059C44.9199 8.08691 46.4196 7.70508 48.124 7.70508C50.5479 7.70508 52.5234 8.44661 54.0508 9.92969C55.5892 11.4128 56.4469 13.4271 56.624 15.9727L56.6572 17.2012C56.6572 19.957 55.888 22.1706 54.3496 23.8418C52.8112 25.502 50.7471 26.332 48.1572 26.332C45.5674 26.332 43.4977 25.502 41.9482 23.8418C40.4098 22.1816 39.6406 19.9238 39.6406 17.0684V16.8525ZM44.4385 17.2012C44.4385 18.9056 44.7594 20.2116 45.4014 21.1191C46.0433 22.0156 46.9619 22.4639 48.1572 22.4639C49.3193 22.4639 50.2269 22.0212 50.8799 21.1357C51.5329 20.2393 51.8594 18.8115 51.8594 16.8525C51.8594 15.1813 51.5329 13.8864 50.8799 12.9678C50.2269 12.0492 49.3083 11.5898 48.124 11.5898C46.9508 11.5898 46.0433 12.0492 45.4014 12.9678C44.7594 13.8753 44.4385 15.2865 44.4385 17.2012ZM58.8652 16.8857C58.8652 14.0856 59.4906 11.8555 60.7412 10.1953C62.0029 8.53516 63.724 7.70508 65.9043 7.70508C67.653 7.70508 69.0973 8.35807 70.2373 9.66406V0.5H75.0518V26H70.7188L70.4863 24.0908C69.291 25.585 67.7526 26.332 65.8711 26.332C63.7572 26.332 62.0583 25.502 60.7744 23.8418C59.5016 22.1706 58.8652 19.8519 58.8652 16.8857ZM63.6631 17.2344C63.6631 18.9167 63.9564 20.2061 64.543 21.1025C65.1296 21.999 65.9818 22.4473 67.0996 22.4473C68.5827 22.4473 69.6286 21.8219 70.2373 20.5713V13.4824C69.6396 12.2318 68.6048 11.6064 67.1328 11.6064C64.8197 11.6064 63.6631 13.4824 63.6631 17.2344ZM87.0381 26.332C84.404 26.332 82.2568 25.5241 80.5967 23.9082C78.9476 22.2923 78.123 20.1396 78.123 17.4502V16.9854C78.123 15.1813 78.4717 13.571 79.1689 12.1543C79.8662 10.7266 80.8512 9.63086 82.124 8.86719C83.4079 8.09245 84.8688 7.70508 86.5068 7.70508C88.9639 7.70508 90.8952 8.47982 92.3008 10.0293C93.7174 11.5788 94.4258 13.7757 94.4258 16.6201V18.5791H82.9873C83.1423 19.7523 83.6071 20.693 84.3818 21.4014C85.1676 22.1097 86.1582 22.4639 87.3535 22.4639C89.2018 22.4639 90.6462 21.7943 91.6865 20.4551L94.0439 23.0947C93.3245 24.113 92.3506 24.9098 91.1221 25.4854C89.8936 26.0498 88.5322 26.332 87.0381 26.332ZM86.4902 11.5898C85.5384 11.5898 84.7637 11.9108 84.166 12.5527C83.5794 13.1947 83.2031 14.1133 83.0371 15.3086H89.7109V14.9268C89.6888 13.8643 89.401 13.0452 88.8477 12.4697C88.2943 11.8831 87.5085 11.5898 86.4902 11.5898Z" fill="#4F46E5"/>
</svg>
